<?xml version="1.0" encoding="utf-8"?>
<!-- Generator: Adobe Illustrator 16.0.0, SVG Export Plug-In . SVG Version: 6.00 Build 0)  -->
<!DOCTYPE svg PUBLIC "-//W3C//DTD SVG 1.1//EN" "http://www.w3.org/Graphics/SVG/1.1/DTD/svg11.dtd">
<svg version="1.1" id="Layer_1" xmlns="http://www.w3.org/2000/svg" xmlns:xlink="http://www.w3.org/1999/xlink" x="0px" y="0px"
	 width="164px" height="78px" viewBox="0 0 164 78" enable-background="new 0 0 164 78" xml:space="preserve">
<g>
	<path fill="#4E2F91" d="M20.158,32.986h-2.187c-1.571,0-2.864,0.141-3.881,0.418c-1.013,0.279-2.012,0.772-2.996,1.475
		c-1.259,0.917-2.265,2.077-3.02,3.486C7.226,39.936,6.8,41.586,6.8,43.324c0,2.457,0.794,4.615,2.383,6.48
		c1.146,1.344,2.412,2.309,3.805,2.885c1.39,0.58,3.125,0.875,5.205,0.875h1.965v6.455h-1.965c-2.653,0-4.704-0.211-6.162-0.639
		c-3.536-1.049-6.419-3.043-8.644-5.988C1.128,50.412,0,47.041,0,43.275c0-4.405,1.464-8.194,4.393-11.367
		c2.437-2.651,5.402-4.336,8.888-5.059c1.161-0.228,2.684-0.343,4.566-0.343h2.311V32.986z"/>
	<path fill="#4E2F91" d="M38.22,32.571c-3.193,0-5.851,1.226-7.979,3.685c-1.72,1.978-2.577,4.311-2.577,6.995
		c0,3.273,1.204,5.965,3.608,8.078c1.998,1.75,4.306,2.629,6.924,2.629c3.192,0,5.836-1.244,7.934-3.736
		c1.682-2.027,2.526-4.293,2.526-6.797c0-3.143-1.139-5.806-3.413-7.981C43.327,33.593,40.986,32.635,38.22,32.571 M38.268,25.94
		c4.782,0,8.873,1.743,12.276,5.231c3.292,3.338,4.938,7.464,4.938,12.375c0,3.041-0.836,5.939-2.506,8.689
		c-1.585,2.635-3.734,4.697-6.431,6.186c-2.59,1.426-5.378,2.139-8.376,2.139c-3.009,0-5.828-0.73-8.444-2.184
		c-2.816-1.557-5.016-3.719-6.604-6.48c-1.54-2.705-2.308-5.586-2.308-8.646c0-5.171,1.964-9.512,5.892-13.014
		C29.881,27.425,33.736,25.989,38.268,25.94"/>
	<path fill="#4E2F91" d="M74.111,60.02h-9.796c-2.488,0-4.252-0.539-5.292-1.619c-1.04-1.08-1.561-2.906-1.561-5.475v-26.42h6.828
		v26.932h9.82V60.02z"/>
	<rect x="76.609" y="26.506" fill="#4E2F91" width="6.826" height="33.514"/>
	<path fill="#4E2F91" d="M113.623,26.506V53.34c0,2.197-0.179,3.727-0.537,4.592c-0.297,0.719-0.82,1.314-1.571,1.783
		c-0.754,0.465-1.557,0.697-2.408,0.697c-1.587,0-2.831-0.646-3.729-1.939c-0.345-0.508-0.844-1.488-1.499-2.943l-7.757-17.017
		V60.02h-6.828V33.649c0-1.687,0.025-2.758,0.074-3.229c0.051-0.464,0.206-0.993,0.465-1.583c0.362-0.835,0.928-1.492,1.693-1.978
		c0.773-0.48,1.638-0.725,2.604-0.725c1.18,0,2.147,0.357,2.911,1.068c0.761,0.712,1.582,2.054,2.467,4.015l7.293,15.96V26.506
		H113.623z"/>
	<path fill="#4E2F91" d="M131.786,47.078l-2.922-11.294l-2.847,11.294H131.786z M142.492,60.02h-7.413l-1.672-6.502h-9.034
		l-1.694,6.502h-7.194l8.151-29.194c0.377-1.37,0.895-2.436,1.549-3.192c1.012-1.16,2.255-1.741,3.732-1.741
		c2.55,0,4.302,1.663,5.252,4.984L142.492,60.02z"/>
	<path fill="#4E2F91" d="M161.12,26.925v6.995c-2.39-1.111-4.551-1.668-6.483-1.668c-1.537,0-2.731,0.4-3.584,1.202
		c-0.805,0.752-1.204,1.639-1.204,2.649c0,1.003,0.314,1.765,0.936,2.287c0.622,0.525,1.789,1.01,3.509,1.45
		c2.211,0.571,3.755,1.061,4.63,1.458c0.874,0.404,1.673,0.996,2.393,1.781c1.737,1.865,2.604,4.174,2.604,6.926
		c0,3.389-1.228,6.078-3.683,8.078c-2.078,1.684-4.796,2.529-8.153,2.529c-2.355,0-5.205-0.543-8.544-1.623v-7.119
		c3.502,1.471,6.399,2.207,8.693,2.207c1.49,0,2.642-0.359,3.463-1.076c0.848-0.754,1.276-1.688,1.276-2.799
		c0-1.312-0.589-2.27-1.768-2.875c-0.493-0.248-1.688-0.605-3.585-1.078c-3.453-0.871-5.821-2.312-7.095-4.322
		c-1.032-1.639-1.548-3.438-1.548-5.403c0-2.47,0.759-4.681,2.283-6.627c1.08-1.395,2.352-2.405,3.818-3.036
		c1.467-0.629,3.274-0.943,5.438-0.943C156.61,25.917,158.812,26.254,161.12,26.925"/>
</g>
<g>
	<path fill="#EC008C" d="M95.717,64.045v2.346c-0.803-0.373-1.526-0.561-2.174-0.561c-0.516,0-0.918,0.137-1.204,0.402
		c-0.271,0.254-0.403,0.553-0.403,0.893c0,0.332,0.104,0.588,0.312,0.764c0.212,0.178,0.601,0.336,1.177,0.484
		c0.74,0.193,1.257,0.357,1.555,0.492c0.292,0.131,0.562,0.332,0.8,0.594c0.587,0.625,0.875,1.404,0.875,2.322
		c0,1.139-0.411,2.043-1.234,2.711c-0.698,0.568-1.608,0.852-2.736,0.852c-0.787,0-1.742-0.186-2.867-0.547v-2.385
		c1.175,0.492,2.148,0.742,2.918,0.742c0.499,0,0.886-0.123,1.162-0.365c0.287-0.252,0.428-0.566,0.428-0.938
		c0-0.439-0.201-0.76-0.593-0.965c-0.166-0.084-0.567-0.205-1.204-0.363c-1.158-0.293-1.95-0.771-2.377-1.449
		c-0.349-0.549-0.518-1.152-0.518-1.811c0-0.832,0.25-1.57,0.764-2.227c0.362-0.465,0.789-0.805,1.28-1.012
		c0.491-0.215,1.1-0.322,1.825-0.322C94.203,63.703,94.941,63.818,95.717,64.045z"/>
	<path fill="#EC008C" d="M106.406,63.902v11.246h-2.286v-4.732h-3.559v4.732H98.27V63.902h2.292v4.379h3.559v-4.379H106.406z"/>
	<path fill="#EC008C" d="M113.879,63.715c1.603,0,2.976,0.582,4.117,1.752c1.101,1.123,1.656,2.506,1.656,4.15
		c0,1.023-0.277,1.994-0.839,2.916c-0.533,0.889-1.251,1.576-2.16,2.074c-0.866,0.479-1.804,0.717-2.808,0.717
		c-1.009,0-1.955-0.244-2.833-0.732c-0.942-0.521-1.685-1.246-2.213-2.176c-0.52-0.906-0.778-1.867-0.778-2.898
		c0-1.734,0.658-3.189,1.979-4.363C111.065,64.211,112.359,63.73,113.879,63.715z M113.861,65.936c-1.07,0-1.962,0.41-2.675,1.236
		c-0.577,0.662-0.864,1.447-0.864,2.346c0,1.102,0.406,2.002,1.211,2.713c0.67,0.586,1.445,0.879,2.32,0.879
		c1.072,0,1.957-0.418,2.662-1.248c0.567-0.686,0.845-1.445,0.845-2.287c0-1.051-0.379-1.941-1.14-2.676
		C115.577,66.279,114.79,65.957,113.861,65.936z"/>
	<path fill="#EC008C" d="M123.498,75.148h-2.286v-8.863c0-0.52,0.037-0.92,0.122-1.193c0.083-0.268,0.232-0.498,0.455-0.688
		c0.211-0.191,0.479-0.33,0.798-0.408c0.316-0.08,0.733-0.119,1.249-0.119c0.731,0,1.322,0.066,1.78,0.193
		c0.455,0.131,0.85,0.34,1.18,0.641c0.723,0.662,1.086,1.502,1.086,2.504c0,1.059-0.396,1.936-1.188,2.625
		c-0.358,0.322-0.765,0.535-1.218,0.66c-0.458,0.119-1.115,0.184-1.979,0.195V75.148z M123.498,68.496h0.266
		c0.495,0,0.859-0.041,1.094-0.131c0.209-0.084,0.38-0.225,0.512-0.424c0.132-0.201,0.198-0.416,0.198-0.652
		c0-0.242-0.07-0.469-0.211-0.674c-0.138-0.203-0.315-0.342-0.53-0.414c-0.203-0.074-0.56-0.105-1.069-0.105h-0.259V68.496z"/>
	<path fill="#EC008C" d="M131.582,75.148h-2.288v-8.863c0-0.52,0.038-0.92,0.122-1.193c0.081-0.268,0.233-0.498,0.45-0.688
		c0.216-0.191,0.48-0.33,0.8-0.408c0.316-0.08,0.735-0.119,1.254-0.119c0.731,0,1.322,0.066,1.778,0.193
		c0.454,0.131,0.846,0.34,1.178,0.641c0.723,0.662,1.084,1.502,1.084,2.504c0,1.059-0.396,1.936-1.184,2.625
		c-0.36,0.322-0.764,0.535-1.214,0.66c-0.461,0.119-1.118,0.184-1.98,0.195V75.148z M131.582,68.496h0.262
		c0.495,0,0.859-0.041,1.098-0.131c0.207-0.084,0.378-0.225,0.512-0.424c0.131-0.201,0.194-0.416,0.194-0.652
		c0-0.242-0.067-0.469-0.209-0.674c-0.14-0.203-0.316-0.342-0.531-0.414c-0.204-0.074-0.56-0.105-1.068-0.105h-0.257V68.496z"/>
	<path fill="#EC008C" d="M139.722,63.902v11.246h-2.29V63.902H139.722z"/>
	<path fill="#EC008C" d="M150.066,63.902v9.002c0,0.736-0.062,1.25-0.181,1.541c-0.102,0.238-0.276,0.441-0.531,0.598
		c-0.25,0.154-0.519,0.23-0.801,0.23c-0.533,0-0.953-0.213-1.256-0.65c-0.115-0.168-0.28-0.498-0.502-0.986l-2.603-5.703v7.215
		h-2.289v-8.844c0-0.57,0.01-0.934,0.024-1.086c0.019-0.156,0.067-0.342,0.16-0.529c0.113-0.285,0.308-0.504,0.564-0.664
		c0.262-0.16,0.548-0.248,0.875-0.248c0.395,0,0.718,0.119,0.975,0.363c0.254,0.236,0.533,0.686,0.83,1.348l2.443,5.35v-6.936
		H150.066z"/>
	<path fill="#EC008C" d="M157.562,69.035h4.167c0.493,0,0.864,0.121,1.109,0.363c0.267,0.262,0.397,0.604,0.397,1.029
		c0,0.375-0.104,0.824-0.321,1.326c-0.216,0.51-0.492,0.973-0.831,1.4c-0.541,0.67-1.188,1.197-1.943,1.582
		c-0.812,0.402-1.677,0.607-2.594,0.607c-1.002,0-1.934-0.242-2.801-0.721c-0.944-0.514-1.692-1.24-2.24-2.186
		c-0.526-0.898-0.794-1.875-0.794-2.906c0-1.08,0.28-2.076,0.835-3c0.537-0.895,1.265-1.6,2.176-2.105
		c0.87-0.48,1.812-0.723,2.814-0.723c0.989,0,1.901,0.227,2.734,0.688c0.841,0.453,1.551,1.113,2.133,1.967l-1.918,1.242
		c-0.234-0.361-0.495-0.658-0.792-0.891c-0.657-0.514-1.382-0.773-2.176-0.773c-0.615,0-1.205,0.164-1.759,0.496
		c-0.556,0.326-0.99,0.779-1.304,1.342c-0.297,0.537-0.444,1.125-0.444,1.758c0,1.109,0.406,2.016,1.221,2.721
		c0.665,0.576,1.429,0.867,2.301,0.867c0.673,0,1.275-0.168,1.804-0.496c0.529-0.332,0.973-0.824,1.322-1.475h-3.097V69.035z"/>
</g>
<path fill="#EC008C" d="M90.076,12.655c0-5.521-4.478-9.999-10.001-9.999c-5.52,0-9.999,4.477-9.999,9.999
	c0,5.521,4.479,10,9.999,10C85.599,22.656,90.076,18.176,90.076,12.655"/>
<path fill="#F8991D" d="M86.442,12.655c0-3.517-2.853-6.366-6.367-6.366s-6.367,2.849-6.367,6.366c0,3.516,2.852,6.368,6.367,6.368
	S86.442,16.171,86.442,12.655"/>
<path fill="#4E2F91" d="M83.902,12.655c0-2.113-1.715-3.822-3.827-3.822c-2.111,0-3.827,1.709-3.827,3.822
	c0,2.116,1.715,3.825,3.827,3.825C82.188,16.48,83.902,14.771,83.902,12.655"/>
</svg>
